<?xml version="1.0" standalone="no"?>
<!DOCTYPE svg PUBLIC "-//W3C//DTD SVG 20010904//EN"
 "http://www.w3.org/TR/2001/REC-SVG-20010904/DTD/svg10.dtd">
<svg version="1.0" xmlns="http://www.w3.org/2000/svg"
 width="256.000000pt" height="64.000000pt" viewBox="0 0 256.000000 64.000000"
 preserveAspectRatio="xMidYMid meet">
<metadata>
Created by potrace 1.15, written by Peter Selinger 2001-2017
</metadata>
<g transform="translate(0.000000,64.000000) scale(0.100000,-0.100000)"
fill="#000000" stroke="none">
<path d="M40 315 l0 -215 60 0 60 0 0 80 0 80 230 0 230 0 0 -80 0 -80 60 0
60 0 0 215 0 215 -60 0 -60 0 0 -80 0 -80 -230 0 -230 0 0 80 0 80 -60 0 -60
0 0 -215z"/>
<path d="M830 471 l0 -60 57 -3 57 -3 95 -152 96 -153 44 3 44 2 91 144 91
145 3 -147 3 -147 59 0 60 0 0 215 0 215 -87 0 -88 -1 -84 -135 c-46 -74 -87
-133 -92 -132 -4 2 -48 61 -96 133 l-89 130 -82 3 -82 3 0 -60z"/>
<path d="M1610 315 l0 -215 60 0 60 0 0 215 0 215 -60 0 -60 0 0 -215z"/>
<path d="M1873 510 c-35 -21 -53 -48 -53 -79 0 -21 3 -21 350 -21 l350 0 0 60
0 60 -307 0 c-287 0 -310 -1 -340 -20z"/>
<path d="M830 235 l0 -135 60 0 60 0 0 135 0 135 -60 0 -60 0 0 -135z"/>
<path d="M1820 235 l0 -135 60 0 60 0 0 80 0 80 290 0 290 0 0 55 0 55 -350 0
-350 0 0 -135z"/>
</g>
</svg>
